{
  "accessors": [
    {
      "bufferView": 0,
      "componentType": 5126,
      "count": 72,
      "type": "VEC3",
      "max": [
        4.880002021789551,
        8.578001022338867,
        2.4532339572906494
      ],
      "min": [
        2.8339970111846924,
        8.550000190734863,
        -0.06800000369548798
      ],
      "byteOffset": 0
    },
    {
      "bufferView": 1,
      "componentType": 5126,
      "count": 72,
      "type": "VEC3",
      "max": [
        1,
        1,
        1
      ],
      "min": [
        -1,
        0,
        -1
      ],
      "byteOffset": 0
    },
    {
      "bufferView": 2,
      "componentType": 5126,
      "count": 72,
      "type": "VEC4",
      "max": [
        0,
        0,
        0,
        1
      ],
      "min": [
        -1,
        -1,
        0,
        -1
      ],
      "byteOffset": 0
    },
    {
      "bufferView": 3,
      "componentType": 5126,
      "count": 72,
      "type": "VEC2",
      "max": [
        9.999999974752427e-7,
        1.0679999589920044
      ],
      "min": [
        -4.8800048828125,
        -1.4532339572906494
      ],
      "byteOffset": 0
    },
    {
      "bufferView": 4,
      "componentType": 5121,
      "count": 138,
      "type": "SCALAR",
      "max": [
        71
      ],
      "min": [
        0
      ],
      "byteOffset": 0
    },
    {
      "bufferView": 5,
      "componentType": 5126,
      "count": 234,
      "type": "VEC3",
      "max": [
        4.847002029418945,
        8.599998474121094,
        2.436000108718872
      ],
      "min": [
        2.8670010566711426,
        8.520997047424316,
        -0.04500000178813934
      ],
      "byteOffset": 0
    },
    {
      "bufferView": 6,
      "componentType": 5126,
      "count": 234,
      "type": "VEC3",
      "max": [
        1,
        1,
        1
      ],
      "min": [
        -1,
        -1,
        -1
      ],
      "byteOffset": 0
    },
    {
      "bufferView": 7,
      "componentType": 5126,
      "count": 234,
      "type": "VEC4",
      "max": [
        1,
        0,
        0.08121184259653091,
        1
      ],
      "min": [
        -1,
        -1,
        -0.584332287311554,
        -1
      ],
      "byteOffset": 0
    },
    {
      "bufferView": 8,
      "componentType": 5126,
      "count": 234,
      "type": "VEC2",
      "max": [
        1.753546953201294,
        1.4932609796524048
      ],
      "min": [
        -0.23645299673080444,
        -0.718000054359436
      ],
      "byteOffset": 0
    },
    {
      "bufferView": 9,
      "componentType": 5126,
      "count": 234,
      "type": "VEC4",
      "max": [
        1,
        1,
        1,
        1
      ],
      "min": [
        1,
        1,
        1,
        1
      ],
      "byteOffset": 0
    },
    {
      "bufferView": 10,
      "componentType": 5121,
      "count": 126,
      "type": "SCALAR",
      "max": [
        87
      ],
      "min": [
        0
      ],
      "byteOffset": 0
    },
    {
      "bufferView": 11,
      "componentType": 5121,
      "count": 114,
      "type": "SCALAR",
      "max": [
        155
      ],
      "min": [
        88
      ],
      "byteOffset": 0
    },
    {
      "bufferView": 12,
      "componentType": 5121,
      "count": 84,
      "type": "SCALAR",
      "max": [
        211
      ],
      "min": [
        156
      ],
      "byteOffset": 0
    },
    {
      "bufferView": 13,
      "componentType": 5121,
      "count": 39,
      "type": "SCALAR",
      "max": [
        233
      ],
      "min": [
        35
      ],
      "byteOffset": 0
    }
  ],
  "asset": {
    "version": "2.0"
  },
  "buffers": [
    {
      "name": "00_07_e",
      "byteLength": 18940,
      "uri": "data:application/octet-stream;base64,"
    }
  ],
  "bufferViews": [
    {
      "buffer": 0,
      "byteLength": 864,
      "byteOffset": 0,
      "byteStride": 12,
      "target": 34962
    },
    {
      "buffer": 0,
      "byteOffset": 864,
      "byteLength": 864,
      "byteStride": 12,
      "target": 34962
    },
    {
      "buffer": 0,
      "byteOffset": 1728,
      "byteLength": 1152,
      "byteStride": 16,
      "target": 34962
    },
    {
      "buffer": 0,
      "byteOffset": 2880,
      "byteLength": 576,
      "byteStride": 8,
      "target": 34962
    },
    {
      "buffer": 0,
      "byteOffset": 3456,
      "byteLength": 138,
      "target": 34963
    },
    {
      "buffer": 0,
      "byteOffset": 3596,
      "byteLength": 2808,
      "byteStride": 12,
      "target": 34962
    },
    {
      "buffer": 0,
      "byteOffset": 6404,
      "byteLength": 2808,
      "byteStride": 12,
      "target": 34962
    },
    {
      "buffer": 0,
      "byteOffset": 9212,
      "byteLength": 3744,
      "byteStride": 16,
      "target": 34962
    },
    {
      "buffer": 0,
      "byteOffset": 12956,
      "byteLength": 1872,
      "byteStride": 8,
      "target": 34962
    },
    {
      "buffer": 0,
      "byteOffset": 14828,
      "byteLength": 3744,
      "byteStride": 16,
      "target": 34962
    },
    {
      "buffer": 0,
      "byteOffset": 18572,
      "byteLength": 126,
      "target": 34963
    },
    {
      "buffer": 0,
      "byteOffset": 18700,
      "byteLength": 114,
      "target": 34963
    },
    {
      "buffer": 0,
      "byteOffset": 18816,
      "byteLength": 84,
      "target": 34963
    },
    {
      "buffer": 0,
      "byteOffset": 18900,
      "byteLength": 39,
      "target": 34963
    }
  ],
  "materials": [
    {
      "pbrMetallicRoughness": {
        "metallicFactor": 0,
        "roughnessFactor": 0.5,
        "baseColorFactor": [
          1,
          1,
          1,
          1
        ]
      },
      "emissiveFactor": [
        0,
        0,
        0
      ],
      "name": "Default-Material",
      "alphaMode": "OPAQUE",
      "doubleSided": false
    }
  ],
  "meshes": [
    {
      "primitives": [
        {
          "attributes": {
            "POSITION": 0,
            "NORMAL": 1,
            "TANGENT": 2,
            "TEXCOORD_0": 3
          },
          "indices": 4,
          "material": 0,
          "mode": 4
        },
        {
          "attributes": {
            "POSITION": 5,
            "NORMAL": 6,
            "TANGENT": 7,
            "TEXCOORD_0": 8,
            "COLOR_0": 9
          },
          "indices": 10,
          "material": 0,
          "mode": 4
        },
        {
          "attributes": {
            "POSITION": 5,
            "NORMAL": 6,
            "TANGENT": 7,
            "TEXCOORD_0": 8,
            "COLOR_0": 9
          },
          "indices": 11,
          "material": 0,
          "mode": 4
        },
        {
          "attributes": {
            "POSITION": 5,
            "NORMAL": 6,
            "TANGENT": 7,
            "TEXCOORD_0": 8,
            "COLOR_0": 9
          },
          "indices": 12,
          "material": 0,
          "mode": 4
        },
        {
          "attributes": {
            "POSITION": 5,
            "NORMAL": 6,
            "TANGENT": 7,
            "TEXCOORD_0": 8,
            "COLOR_0": 9
          },
          "indices": 13,
          "material": 0,
          "mode": 4
        }
      ],
      "name": "00_07_e(Clone)"
    }
  ],
  "nodes": [
    {
      "mesh": 0,
      "rotation": [
        -0.7071068,
        0,
        0,
        0.7071068
      ],
      "scale": [
        1,
        1.00000048,
        1.00000048
      ],
      "name": "00_07_e(Clone)",
      "translation": [
        0,
        0,
        0
      ]
    }
  ],
  "scene": 0,
  "scenes": [
    {
      "nodes": [
        0
      ],
      "name": "00_07_e"
    }
  ]
}
